<?xml version="1.0" encoding="UTF-8"?>
<svg version="1.1" xmlns="http://www.w3.org/2000/svg" width="432" height="595">
<path d="M0 0 C0.66 0 1.32 0 2 0 C8.58824085 13.46676203 15.0505653 26.9519409 21.0625 40.6875 C29.95831651 60.90208401 39.96648251 80.22930672 51.3125 99.17626953 C52.9092518 101.84814907 54.48850091 104.52951523 56.0625 107.21484375 C63.26540691 119.4481064 70.99565975 131.278014 79 143 C79.63454102 143.93247559 80.26908203 144.86495117 80.92285156 145.82568359 C89.98569062 159.11288037 99.42102156 172.05031637 109.27099609 184.76416016 C110.77960345 186.71499695 112.27807854 188.67275959 113.76953125 190.63671875 C119.84852695 198.62092474 126.15096158 206.41113233 132.50732422 214.17529297 C133.82186202 215.78223696 135.13198302 217.39279191 136.44140625 219.00390625 C139.88067806 223.23070362 143.35511081 227.4106705 146.92919922 231.52441406 C152.21167872 237.6366512 156.93987338 244.00307967 161.52758789 250.65112305 C164.2023571 254.51133553 166.94595068 258.2350429 169.94116211 261.8515625 C178.89197164 272.6973858 185.93115136 284.88069677 193 297 C193.58555664 298.00337402 194.17111328 299.00674805 194.77441406 300.04052734 C202.84622652 314.09189696 208.41267713 328.18710058 212 344 C212.27376465 345.18529297 212.5475293 346.37058594 212.82958984 347.59179688 C215.08662931 358.30235331 215.55472594 368.69950318 215.5 379.625 C215.49885193 380.95612823 215.49885193 380.95612823 215.49768066 382.31414795 C215.44617603 398.98560037 213.62886248 414.71104585 210 431 C209.82952148 431.79954102 209.65904297 432.59908203 209.48339844 433.42285156 C203.02860562 463.12038031 187.2136232 491.72705961 168 515 C167.53094238 515.57057129 167.06188477 516.14114258 166.57861328 516.72900391 C156.71798774 528.65083505 146.24876378 539.48015415 134 549 C133.42685059 549.45487793 132.85370117 549.90975586 132.26318359 550.37841797 C99.11632504 576.63101063 55.5383854 595.02165843 12.87890625 595.203125 C11.82074203 595.20882507 10.76257782 595.21452515 9.67234802 595.22039795 C7.43758124 595.22980953 5.20280083 595.23636657 2.96801758 595.24023438 C-0.39592784 595.24988079 -3.759246 595.28091733 -7.12304688 595.3125 C-19.44091366 595.37387904 -30.98606401 594.75364736 -43 592 C-44.0820874 591.76490723 -45.1641748 591.52981445 -46.27905273 591.28759766 C-49.19892954 590.63100725 -52.09953425 589.92479225 -55 589.1875 C-56.01618408 588.93033203 -57.03236816 588.67316406 -58.0793457 588.40820312 C-71.62349317 584.89695524 -84.47245316 580.26377342 -97 574 C-97.87688477 573.56349121 -97.87688477 573.56349121 -98.77148438 573.11816406 C-122.89386021 561.00570648 -145.7128197 543.82060397 -163 523 C-163.78246094 522.12859375 -164.56492188 521.2571875 -165.37109375 520.359375 C-174.00832279 510.65890531 -181.02248532 499.92968518 -188 489 C-188.70253906 487.906875 -189.40507812 486.81375 -190.12890625 485.6875 C-206.53153693 458.89526798 -216.87079845 425.7801857 -217.2734375 394.33984375 C-217.28596558 393.44048599 -217.29849365 392.54112823 -217.31140137 391.61451721 C-217.52706423 372.43611908 -217.43345214 354.53470671 -212 336 C-211.53434686 334.23006122 -211.07212218 332.459217 -210.61328125 330.6875 C-207.86132704 320.44591728 -204.08824498 311.1742117 -199.01464844 301.875 C-198.02435406 300.04500462 -197.07366577 298.19957063 -196.1328125 296.34375 C-188.05849476 280.5502154 -178.35980079 266.07616734 -167.31640625 252.21875 C-164.33654054 248.46903602 -161.54715663 244.61801756 -158.8125 240.6875 C-154.72112132 234.83800225 -150.24527566 229.41473515 -145.5859375 224.01171875 C-141.93971454 219.76513581 -138.46249532 215.39671575 -135 211 C-134.19304687 209.97777344 -133.38609375 208.95554688 -132.5546875 207.90234375 C-130.21561593 204.93532477 -127.8850652 201.96170685 -125.55664062 198.98632812 C-123.92136331 196.89965682 -122.28093097 194.81709493 -120.640625 192.734375 C-113.57080608 183.73111645 -106.73077091 174.59785088 -100.07421875 165.28515625 C-97.73077683 162.00667152 -95.34912691 158.76005235 -92.9440918 155.52661133 C-81.78108981 140.49178522 -71.38938093 124.87778911 -61.33154297 109.08642578 C-59.9796843 106.96816685 -58.61719618 104.85700977 -57.25390625 102.74609375 C-43.13772286 80.77251522 -30.22739066 58.070392 -18 35 C-17.31019043 33.70497559 -17.31019043 33.70497559 -16.60644531 32.38378906 C-10.90151489 21.6720696 -5.37332443 10.88173243 0 0 Z " fill="#36026D" transform="translate(217,0)"/>
</svg>
